# xmcd
#
# Track frame offsets: 
#        150
#        20695
#        42405
#        64103
#        83338
#        102579
#        120650
#        143104
#        163892
#        185368
#        205929
#        235052
#
# Disc length: 3410 seconds
#
# Revision: 0
# Processed by: cddbd v1.5.2PL0 Copyright (c) Steve Scherf et al.
# Submitted via: ExactAudioCopy v1.1
#
DISCID=a20d500c
DTITLE=五木ひろし - 五木ひろし 芸能生活50周年記念大全集 シングルセレクション Disc 3 FKCX-5064-7
DYEAR=1900
DGENRE=Blues
TTITLE0=心
TTITLE1=おしどり
TTITLE2=終着駅
TTITLE3=べにばな
TTITLE4=汽笛
TTITLE5=酒尽尽
TTITLE6=女の酒場
TTITLE7=紫陽花
TTITLE8=酒ひとり
TTITLE9=再り会い
TTITLE10=山河 (2012バージョン)
TTITLE11=おふくろの子守歌 (ニューバージョン)
EXTD=
EXTT0=
EXTT1=
EXTT2=
EXTT3=
EXTT4=
EXTT5=
EXTT6=
EXTT7=
EXTT8=
EXTT9=
EXTT10=
EXTT11=
PLAYORDER=
